:SAMPLES-PER-SECOND 30
:FULLY-SPECIFIED
:DEGREES
165
root  -42.5962 34.4229 2.47903 -0.0178528 87.525 -2.0714
RightUpLeg  -10.1349 -11.2834 -5.86576
RightLeg  18.9467 -3.6072 -0.984727
RightFoot  2.30465 0.0151701 0.0407235
RightToes  -29.4684 -0.14069 -0.253515
Spine  0.109654 0.78629 0.210522
Spine1  0.180871 1.68743 1.07761
HEad  -64.7541 -0.270761 1.84945
LeftShoulder1  -1.94126e-019 -3.10601e-018 -2.51263e-017
LeftArm  -4.00598 23.8728 -76.9759
LeftForeArm  35.1914 -41.9376 -7.72415
LeftHand  -0.268848 -1.75362 4.54236
RightShoulder  -4.96962e-017 0 -2.36833e-017
RightArm  -6.08089 -15.4595 74.7777
RightForeArm  56.7337 29.0433 3.31499
RightHand  -0.437449 -0.514797 -10.4147
LeftUpLeg  -11.1223 8.83383 1.7767
LeftLeg  23.9456 13.5498 4.94026
LeftFoot  -1.23026 -0.00342426 -0.157407
LeftToes  -22.4497 2.40056e-006 -7.68412e-008
166
root  -42.4098 34.3902 2.42348 2.61957 86.9527 0.609207
RightUpLeg  -10.0784 -11.1209 -6.15737
RightLeg  19.2805 -3.19392 -0.892431
RightFoot  1.98969 0.0128921 0.069872
RightToes  -29.8259 -0.141609 -0.253652
Spine  -0.35431 0.807725 0.296249
Spine1  -0.767963 1.72688 1.1985
HEad  -65.4994 0.150951 3.20193
LeftShoulder1  -1.94126e-019 -3.10601e-018 -2.51263e-017
LeftArm  -12.6369 27.3157 -77.8181
LeftForeArm  32.111 -27.42 -4.14452
LeftHand  -0.363782 -0.740644 7.006
RightShoulder  -4.96962e-017 0 -2.36833e-017
RightArm  -15.43 -18.433 74.3061
RightForeArm  60.5413 15.5971 0.972214
RightHand  -0.430845 -0.992727 -11.3217
LeftUpLeg  -10.7641 8.65425 1.56605
LeftLeg  24.1853 14.2392 5.25193
LeftFoot  -1.6744 -0.00694259 -0.313554
LeftToes  -22.0431 2.40056e-006 -7.68412e-008
167
root  -42.2192 34.3406 2.39862 0.850342 86.6063 -1.23416
RightUpLeg  -10.1132 -11.5198 -6.19686
RightLeg  19.6797 -2.46757 -0.70884
RightFoot  1.6839 0.0117287 0.0829921
RightToes  -30.4103 -0.142542 -0.25356
Spine  -0.891802 0.708903 0.466959
Spine1  -1.84362 1.41752 1.51035
HEad  -66.13 0.211053 4.65524
LeftShoulder1  -1.94126e-019 -3.10601e-018 -2.51263e-017
LeftArm  -23.6946 30.2373 -77.1915
LeftForeArm  29.5846 -13.6866 -2.41033
LeftHand  -0.407808 0.918275 10.5748
RightShoulder  -4.96962e-017 0 -2.36833e-017
RightArm  -31.4354 -22.7322 71.9394
RightForeArm  68.3453 8.56234 1.42374
RightHand  -0.268456 -3.09967 -13.1269
LeftUpLeg  -10.714 8.45998 1.61556
LeftLeg  24.7708 14.6735 5.57591
LeftFoot  -2.31485 -0.0143106 -0.546758
LeftToes  -21.6957 2.40056e-006 -7.68412e-008
168
root  -42.0809 34.3245 2.4188 -1.53307 86.403 -3.71635
RightUpLeg  -9.98736 -11.5799 -6.04884
RightLeg  19.6136 -2.27319 -0.65033
RightFoot  1.58833 0.0123571 0.0704172
RightToes  -30.5324 -0.143437 -0.253291
Spine  -1.43331 0.552528 0.532096
Spine1  -2.86781 0.967811 1.67751
HEad  -66.9832 0.358318 6.4075
LeftShoulder1  -1.94126e-019 -3.10601e-018 -2.51263e-017
LeftArm  -30.2576 34.0917 -74.8089
LeftForeArm  22.8524 -5.83329 -1.02283
LeftHand  -0.254318 3.16342 12.8313
RightShoulder  -4.96962e-017 0 -2.36833e-017
RightArm  -40.7302 -27.7652 69.1229
RightForeArm  69.6175 5.12778 0.84225
RightHand  -0.0364303 -5.21395 -13.364
LeftUpLeg  -10.6484 8.07 1.77098
LeftLeg  25.0621 15.1598 5.84209
LeftFoot  -2.60541 -0.0190867 -0.677759
LeftToes  -21.5598 2.40056e-006 -7.68412e-008
169
root  -41.9499 34.3326 2.44274 -2.82091 86.2596 -5.12813
RightUpLeg  -9.71978 -11.3338 -5.92137
RightLeg  19.225 -2.40752 -0.670805
RightFoot  1.59947 0.013607 0.0488834
RightToes  -30.3867 -0.144243 -0.252898
Spine  -1.90788 0.370042 0.558963
Spine1  -3.72579 0.490587 1.76469
HEad  -67.9325 1.05349 7.94422
LeftShoulder1  -1.94126e-019 -3.10601e-018 -2.51263e-017
LeftArm  -32.5781 39.1495 -72.2195
LeftForeArm  16.9004 -4.35925 -0.774629
LeftHand  -0.00148815 5.48536 14.8148
RightShoulder  -4.96962e-017 0 -2.36833e-017
RightArm  -42.7592 -33.0954 66.286
RightForeArm  67.2928 4.76125 0.784908
RightHand  0.0183487 -5.75986 -11.8457
LeftUpLeg  -10.4522 7.82726 1.87209
LeftLeg  24.9411 15.5274 5.94252
LeftFoot  -2.67611 -0.0208577 -0.731392
LeftToes  -21.508 2.40056e-006 -7.68412e-008
170
root  -41.8401 34.3463 2.47851 -3.17604 86.1309 -5.60211
RightUpLeg  -9.47922 -10.9237 -5.81026
RightLeg  18.8284 -2.70717 -0.733664
RightFoot  1.71791 0.0151641 0.0228953
RightToes  -30.6998 -0.144909 -0.252431
Spine  -2.29806 0.184259 0.557727
Spine1  -4.39721 0.0431946 1.78154
HEad  -68.7674 2.19465 9.03467
LeftShoulder1  -1.94126e-019 -3.10601e-018 -2.51263e-017
LeftArm  -32.7861 44.052 -69.8354
LeftForeArm  13.9771 -4.62001 -0.821464
LeftHand  0.0362563 5.77976 15.0172
RightShoulder  -4.96962e-017 0 -2.36833e-017
RightArm  -41.9025 -37.7342 63.6739
RightForeArm  65.244 5.51272 0.919318
RightHand  -0.0915214 -4.53497 -10.1869
LeftUpLeg  -10.1928 7.30875 1.91441
LeftLeg  24.6642 16.1413 6.08233
LeftFoot  -2.63486 -0.0212127 -0.758642
LeftToes  -21.4031 2.40056e-006 -7.68412e-008
171
root  -41.7495 34.3579 2.52817 -3.74194 85.9769 -6.23523
RightUpLeg  -9.27307 -10.7257 -5.68306
RightLeg  18.5385 -2.75162 -0.730626
RightFoot  1.80774 0.0158904 0.00872506
RightToes  -30.6192 -0.145383 -0.251942
Spine  -2.61385 0.0464948 0.557187
Spine1  -4.917 -0.27299 1.78805
HEad  -69.5151 3.41859 10.1486
LeftShoulder1  -1.94126e-019 -3.10601e-018 -2.51263e-017
LeftArm  -31.6603 48.1846 -67.7437
LeftForeArm  13.8877 -5.5833 -0.986284
LeftHand  -0.0662714 4.94834 13.9898
RightShoulder  -4.96962e-017 0 -2.36833e-017
RightArm  -39.3747 -41.5165 61.2756
RightForeArm  62.7459 6.65646 1.12429
RightHand  -0.187498 -3.11892 -8.99479
LeftUpLeg  -9.92425 6.84254 2.00236
LeftLeg  24.4211 16.7017 6.20708
LeftFoot  -2.54676 -0.020562 -0.763451
LeftToes  -21.3755 2.40056e-006 -7.68412e-008
